<mxfile host="app.diagrams.net" modified="2021-09-11T03:08:50.748Z" agent="5.0 (Windows)" etag="1kspA20TV9c2I_Pwjedv" version="14.9.2" type="github">
  <diagram id="uVVHbZ5zzUsosa_pbIDt" name="第 1 页">
    <mxGraphModel dx="2702" dy="898" grid="1" gridSize="10" guides="1" tooltips="1" connect="1" arrows="1" fold="1" page="1" pageScale="1" pageWidth="827" pageHeight="1169" math="0" shadow="0">
      <root>
        <mxCell id="0" />
        <mxCell id="1" parent="0" />
        <mxCell id="u4ja5PV-2jD8R5-x6oz--1" value="登录" style="strokeWidth=2;html=1;shape=mxgraph.flowchart.terminator;whiteSpace=wrap;" parent="1" vertex="1">
          <mxGeometry x="-370" y="50" width="101" height="50" as="geometry" />
        </mxCell>
        <mxCell id="u4ja5PV-2jD8R5-x6oz--20" value="历史油耗统计" style="rounded=0;whiteSpace=wrap;html=1;" parent="1" vertex="1">
          <mxGeometry x="50" y="160" width="121" height="60" as="geometry" />
        </mxCell>
        <mxCell id="u4ja5PV-2jD8R5-x6oz--21" value="车辆正常运行" style="rounded=0;whiteSpace=wrap;html=1;" parent="1" vertex="1">
          <mxGeometry x="50" y="50" width="121" height="60" as="geometry" />
        </mxCell>
        <mxCell id="u4ja5PV-2jD8R5-x6oz--23" value="远程操纵" style="rounded=0;whiteSpace=wrap;html=1;" parent="1" vertex="1">
          <mxGeometry x="-380" y="320" width="121" height="60" as="geometry" />
        </mxCell>
        <mxCell id="u4ja5PV-2jD8R5-x6oz--24" value="产生异常" style="rounded=0;whiteSpace=wrap;html=1;" parent="1" vertex="1">
          <mxGeometry x="40" y="640" width="121" height="60" as="geometry" />
        </mxCell>
        <mxCell id="u4ja5PV-2jD8R5-x6oz--25" value="车辆实时数据采集" style="rounded=0;whiteSpace=wrap;html=1;" parent="1" vertex="1">
          <mxGeometry x="200" y="160" width="121" height="60" as="geometry" />
        </mxCell>
        <mxCell id="u4ja5PV-2jD8R5-x6oz--26" value="车辆实时位置及历史轨迹" style="rounded=0;whiteSpace=wrap;html=1;" parent="1" vertex="1">
          <mxGeometry x="-100" y="160" width="121" height="60" as="geometry" />
        </mxCell>
        <mxCell id="u4ja5PV-2jD8R5-x6oz--27" value="电子围栏" style="rounded=0;whiteSpace=wrap;html=1;" parent="1" vertex="1">
          <mxGeometry x="-300" y="440" width="121" height="60" as="geometry" />
        </mxCell>
        <mxCell id="u4ja5PV-2jD8R5-x6oz--28" value="远程锁机" style="rounded=0;whiteSpace=wrap;html=1;" parent="1" vertex="1">
          <mxGeometry x="-460" y="440" width="121" height="60" as="geometry" />
        </mxCell>
        <mxCell id="u4ja5PV-2jD8R5-x6oz--29" value="车辆故障记录" style="rounded=0;whiteSpace=wrap;html=1;" parent="1" vertex="1">
          <mxGeometry x="240" y="560" width="121" height="60" as="geometry" />
        </mxCell>
        <mxCell id="u4ja5PV-2jD8R5-x6oz--30" value="车辆维修记录" style="rounded=0;whiteSpace=wrap;html=1;" parent="1" vertex="1">
          <mxGeometry x="240" y="640" width="121" height="60" as="geometry" />
        </mxCell>
        <mxCell id="u4ja5PV-2jD8R5-x6oz--31" value="车辆报警记录" style="rounded=0;whiteSpace=wrap;html=1;" parent="1" vertex="1">
          <mxGeometry x="240" y="720" width="121" height="60" as="geometry" />
        </mxCell>
        <mxCell id="u4ja5PV-2jD8R5-x6oz--34" value="" style="endArrow=classic;html=1;entryX=0;entryY=0.5;entryDx=0;entryDy=0;" parent="1" target="u4ja5PV-2jD8R5-x6oz--24" edge="1">
          <mxGeometry width="50" height="50" relative="1" as="geometry">
            <mxPoint y="580" as="sourcePoint" />
            <mxPoint x="40" y="630" as="targetPoint" />
            <Array as="points">
              <mxPoint y="630" />
              <mxPoint y="670" />
            </Array>
          </mxGeometry>
        </mxCell>
        <mxCell id="u4ja5PV-2jD8R5-x6oz--42" value="" style="endArrow=classic;html=1;entryX=0;entryY=0.5;entryDx=0;entryDy=0;" parent="1" target="u4ja5PV-2jD8R5-x6oz--30" edge="1">
          <mxGeometry width="50" height="50" relative="1" as="geometry">
            <mxPoint x="160" y="670" as="sourcePoint" />
            <mxPoint x="210" y="620" as="targetPoint" />
          </mxGeometry>
        </mxCell>
        <mxCell id="u4ja5PV-2jD8R5-x6oz--43" value="" style="endArrow=classic;html=1;" parent="1" edge="1">
          <mxGeometry width="50" height="50" relative="1" as="geometry">
            <mxPoint x="200" y="670" as="sourcePoint" />
            <mxPoint x="240" y="585" as="targetPoint" />
            <Array as="points">
              <mxPoint x="200" y="585" />
            </Array>
          </mxGeometry>
        </mxCell>
        <mxCell id="u4ja5PV-2jD8R5-x6oz--44" value="" style="endArrow=classic;html=1;entryX=0;entryY=0.5;entryDx=0;entryDy=0;" parent="1" target="u4ja5PV-2jD8R5-x6oz--31" edge="1">
          <mxGeometry width="50" height="50" relative="1" as="geometry">
            <mxPoint x="200" y="670" as="sourcePoint" />
            <mxPoint x="250" y="620" as="targetPoint" />
            <Array as="points">
              <mxPoint x="200" y="750" />
            </Array>
          </mxGeometry>
        </mxCell>
        <mxCell id="u4ja5PV-2jD8R5-x6oz--45" value="用户名密码正确" style="strokeWidth=2;html=1;shape=mxgraph.flowchart.decision;whiteSpace=wrap;" parent="1" vertex="1">
          <mxGeometry x="-370" y="160" width="101" height="100" as="geometry" />
        </mxCell>
        <mxCell id="fqiULsxtpZcxbG4pa3M_-9" value="数据分析存储" style="rounded=0;whiteSpace=wrap;html=1;" vertex="1" parent="1">
          <mxGeometry x="-380" y="820" width="121" height="60" as="geometry" />
        </mxCell>
        <mxCell id="fqiULsxtpZcxbG4pa3M_-10" value="操作记录" style="rounded=0;whiteSpace=wrap;html=1;" vertex="1" parent="1">
          <mxGeometry x="-380" y="555" width="121" height="60" as="geometry" />
        </mxCell>
        <mxCell id="fqiULsxtpZcxbG4pa3M_-12" value="" style="endArrow=classic;html=1;" edge="1" parent="1">
          <mxGeometry width="50" height="50" relative="1" as="geometry">
            <mxPoint x="360" y="670" as="sourcePoint" />
            <mxPoint x="500" y="670" as="targetPoint" />
          </mxGeometry>
        </mxCell>
        <mxCell id="fqiULsxtpZcxbG4pa3M_-13" value="" style="endArrow=none;html=1;" edge="1" parent="1">
          <mxGeometry width="50" height="50" relative="1" as="geometry">
            <mxPoint x="360" y="585" as="sourcePoint" />
            <mxPoint x="430" y="670" as="targetPoint" />
            <Array as="points">
              <mxPoint x="430" y="585" />
            </Array>
          </mxGeometry>
        </mxCell>
        <mxCell id="fqiULsxtpZcxbG4pa3M_-14" value="" style="endArrow=none;html=1;" edge="1" parent="1">
          <mxGeometry width="50" height="50" relative="1" as="geometry">
            <mxPoint x="360" y="750" as="sourcePoint" />
            <mxPoint x="430" y="670" as="targetPoint" />
            <Array as="points">
              <mxPoint x="430" y="750" />
            </Array>
          </mxGeometry>
        </mxCell>
        <mxCell id="fqiULsxtpZcxbG4pa3M_-15" value="记录汇总" style="rounded=0;whiteSpace=wrap;html=1;" vertex="1" parent="1">
          <mxGeometry x="500" y="640" width="121" height="60" as="geometry" />
        </mxCell>
        <mxCell id="fqiULsxtpZcxbG4pa3M_-17" value="" style="endArrow=classic;html=1;" edge="1" parent="1">
          <mxGeometry width="50" height="50" relative="1" as="geometry">
            <mxPoint x="-320" y="820" as="sourcePoint" />
            <mxPoint x="-320" y="780" as="targetPoint" />
          </mxGeometry>
        </mxCell>
        <mxCell id="fqiULsxtpZcxbG4pa3M_-18" value="退出登录" style="rounded=0;whiteSpace=wrap;html=1;" vertex="1" parent="1">
          <mxGeometry x="-380" y="720" width="121" height="60" as="geometry" />
        </mxCell>
        <mxCell id="fqiULsxtpZcxbG4pa3M_-20" value="" style="endArrow=classic;html=1;" edge="1" parent="1">
          <mxGeometry width="50" height="50" relative="1" as="geometry">
            <mxPoint x="-319" y="100" as="sourcePoint" />
            <mxPoint x="-319" y="160" as="targetPoint" />
          </mxGeometry>
        </mxCell>
        <mxCell id="fqiULsxtpZcxbG4pa3M_-21" value="" style="endArrow=classic;html=1;entryX=-0.01;entryY=0.64;entryDx=0;entryDy=0;entryPerimeter=0;" edge="1" parent="1" target="u4ja5PV-2jD8R5-x6oz--1">
          <mxGeometry width="50" height="50" relative="1" as="geometry">
            <mxPoint x="-370" y="210" as="sourcePoint" />
            <mxPoint x="-320" y="160" as="targetPoint" />
            <Array as="points">
              <mxPoint x="-400" y="210" />
              <mxPoint x="-400" y="82" />
            </Array>
          </mxGeometry>
        </mxCell>
        <mxCell id="fqiULsxtpZcxbG4pa3M_-22" value="NO" style="text;html=1;align=center;verticalAlign=middle;resizable=0;points=[];autosize=1;strokeColor=none;" vertex="1" parent="1">
          <mxGeometry x="-428" y="140" width="30" height="20" as="geometry" />
        </mxCell>
        <mxCell id="fqiULsxtpZcxbG4pa3M_-23" value="" style="endArrow=classic;html=1;" edge="1" parent="1">
          <mxGeometry width="50" height="50" relative="1" as="geometry">
            <mxPoint x="-319" y="260" as="sourcePoint" />
            <mxPoint x="-319" y="320" as="targetPoint" />
          </mxGeometry>
        </mxCell>
        <mxCell id="fqiULsxtpZcxbG4pa3M_-25" value="" style="endArrow=none;html=1;" edge="1" parent="1">
          <mxGeometry width="50" height="50" relative="1" as="geometry">
            <mxPoint x="-320" y="410" as="sourcePoint" />
            <mxPoint x="-320" y="380" as="targetPoint" />
          </mxGeometry>
        </mxCell>
        <mxCell id="fqiULsxtpZcxbG4pa3M_-26" value="" style="endArrow=classic;html=1;entryX=0.5;entryY=0;entryDx=0;entryDy=0;" edge="1" parent="1" target="u4ja5PV-2jD8R5-x6oz--27">
          <mxGeometry width="50" height="50" relative="1" as="geometry">
            <mxPoint x="-319" y="410" as="sourcePoint" />
            <mxPoint x="-269" y="360" as="targetPoint" />
            <Array as="points">
              <mxPoint x="-239" y="410" />
            </Array>
          </mxGeometry>
        </mxCell>
        <mxCell id="fqiULsxtpZcxbG4pa3M_-27" value="" style="endArrow=classic;html=1;entryX=0.5;entryY=0;entryDx=0;entryDy=0;" edge="1" parent="1" target="u4ja5PV-2jD8R5-x6oz--28">
          <mxGeometry width="50" height="50" relative="1" as="geometry">
            <mxPoint x="-320" y="410" as="sourcePoint" />
            <mxPoint x="-270" y="360" as="targetPoint" />
            <Array as="points">
              <mxPoint x="-399" y="410" />
            </Array>
          </mxGeometry>
        </mxCell>
        <mxCell id="fqiULsxtpZcxbG4pa3M_-29" value="" style="endArrow=none;html=1;" edge="1" parent="1">
          <mxGeometry width="50" height="50" relative="1" as="geometry">
            <mxPoint x="-320" y="530" as="sourcePoint" />
            <mxPoint x="-240" y="500" as="targetPoint" />
            <Array as="points">
              <mxPoint x="-240" y="530" />
            </Array>
          </mxGeometry>
        </mxCell>
        <mxCell id="fqiULsxtpZcxbG4pa3M_-30" value="" style="endArrow=classic;html=1;entryX=0.5;entryY=0;entryDx=0;entryDy=0;" edge="1" parent="1" target="fqiULsxtpZcxbG4pa3M_-10">
          <mxGeometry width="50" height="50" relative="1" as="geometry">
            <mxPoint x="-319" y="530" as="sourcePoint" />
            <mxPoint x="-269" y="480" as="targetPoint" />
          </mxGeometry>
        </mxCell>
        <mxCell id="fqiULsxtpZcxbG4pa3M_-31" value="" style="endArrow=none;html=1;" edge="1" parent="1">
          <mxGeometry width="50" height="50" relative="1" as="geometry">
            <mxPoint x="-398" y="500" as="sourcePoint" />
            <mxPoint x="-320" y="530" as="targetPoint" />
            <Array as="points">
              <mxPoint x="-398" y="530" />
            </Array>
          </mxGeometry>
        </mxCell>
        <mxCell id="fqiULsxtpZcxbG4pa3M_-32" value="YES" style="text;html=1;align=center;verticalAlign=middle;resizable=0;points=[];autosize=1;strokeColor=none;" vertex="1" parent="1">
          <mxGeometry x="-320" y="270" width="40" height="20" as="geometry" />
        </mxCell>
        <mxCell id="fqiULsxtpZcxbG4pa3M_-33" value="" style="endArrow=classic;html=1;entryX=0.5;entryY=0;entryDx=0;entryDy=0;" edge="1" parent="1" target="u4ja5PV-2jD8R5-x6oz--20">
          <mxGeometry width="50" height="50" relative="1" as="geometry">
            <mxPoint x="110" y="110" as="sourcePoint" />
            <mxPoint x="160" y="60" as="targetPoint" />
          </mxGeometry>
        </mxCell>
        <mxCell id="fqiULsxtpZcxbG4pa3M_-34" value="" style="endArrow=classic;html=1;entryX=0.5;entryY=0;entryDx=0;entryDy=0;" edge="1" parent="1" target="u4ja5PV-2jD8R5-x6oz--26">
          <mxGeometry width="50" height="50" relative="1" as="geometry">
            <mxPoint x="111" y="130" as="sourcePoint" />
            <mxPoint x="161" y="80" as="targetPoint" />
            <Array as="points">
              <mxPoint x="-39" y="130" />
            </Array>
          </mxGeometry>
        </mxCell>
        <mxCell id="fqiULsxtpZcxbG4pa3M_-35" value="" style="endArrow=classic;html=1;entryX=0.5;entryY=0;entryDx=0;entryDy=0;" edge="1" parent="1" target="u4ja5PV-2jD8R5-x6oz--25">
          <mxGeometry width="50" height="50" relative="1" as="geometry">
            <mxPoint x="111" y="130" as="sourcePoint" />
            <mxPoint x="161" y="80" as="targetPoint" />
            <Array as="points">
              <mxPoint x="261" y="130" />
            </Array>
          </mxGeometry>
        </mxCell>
      </root>
    </mxGraphModel>
  </diagram>
</mxfile>
